<mxfile host="app.diagrams.net" modified="2021-10-21T12:56:16.279Z" agent="5.0 (Windows NT 10.0; Win64; x64) AppleWebKit/537.36 (KHTML, like Gecko) Chrome/95.0.4638.54 Safari/537.36" etag="Mty_wtRFBbG1SBmvptJx" version="15.5.8" type="github">
  <diagram id="k83qkPnssDTLg9fUi3y-" name="Page-1">
    <mxGraphModel dx="868" dy="482" grid="1" gridSize="10" guides="1" tooltips="1" connect="1" arrows="1" fold="1" page="1" pageScale="1" pageWidth="850" pageHeight="1100" math="0" shadow="0">
      <root>
        <mxCell id="0" />
        <mxCell id="1" parent="0" />
        <mxCell id="mTMwC-vl9moWvbUFObzc-5" style="edgeStyle=orthogonalEdgeStyle;rounded=0;orthogonalLoop=1;jettySize=auto;html=1;entryX=0.5;entryY=0;entryDx=0;entryDy=0;" edge="1" parent="1" source="mTMwC-vl9moWvbUFObzc-1" target="mTMwC-vl9moWvbUFObzc-4">
          <mxGeometry relative="1" as="geometry" />
        </mxCell>
        <mxCell id="mTMwC-vl9moWvbUFObzc-1" value="Counselling session done" style="rounded=0;whiteSpace=wrap;html=1;" vertex="1" parent="1">
          <mxGeometry x="338" y="70" width="175" height="40" as="geometry" />
        </mxCell>
        <mxCell id="mTMwC-vl9moWvbUFObzc-7" style="edgeStyle=orthogonalEdgeStyle;rounded=0;orthogonalLoop=1;jettySize=auto;html=1;" edge="1" parent="1" source="mTMwC-vl9moWvbUFObzc-2">
          <mxGeometry relative="1" as="geometry">
            <mxPoint x="530" y="255" as="targetPoint" />
          </mxGeometry>
        </mxCell>
        <mxCell id="mTMwC-vl9moWvbUFObzc-9" style="edgeStyle=orthogonalEdgeStyle;rounded=0;orthogonalLoop=1;jettySize=auto;html=1;" edge="1" parent="1" source="mTMwC-vl9moWvbUFObzc-2">
          <mxGeometry relative="1" as="geometry">
            <mxPoint x="424" y="320" as="targetPoint" />
          </mxGeometry>
        </mxCell>
        <mxCell id="mTMwC-vl9moWvbUFObzc-2" value="Lead module update" style="shape=tape;whiteSpace=wrap;html=1;" vertex="1" parent="1">
          <mxGeometry x="356.75" y="220" width="134.5" height="70" as="geometry" />
        </mxCell>
        <mxCell id="mTMwC-vl9moWvbUFObzc-6" style="edgeStyle=orthogonalEdgeStyle;rounded=0;orthogonalLoop=1;jettySize=auto;html=1;entryX=0.5;entryY=0.143;entryDx=0;entryDy=0;entryPerimeter=0;" edge="1" parent="1" source="mTMwC-vl9moWvbUFObzc-4" target="mTMwC-vl9moWvbUFObzc-2">
          <mxGeometry relative="1" as="geometry" />
        </mxCell>
        <mxCell id="mTMwC-vl9moWvbUFObzc-4" value="Parent feedback form" style="rounded=0;whiteSpace=wrap;html=1;" vertex="1" parent="1">
          <mxGeometry x="338" y="150" width="172" height="40" as="geometry" />
        </mxCell>
        <mxCell id="mTMwC-vl9moWvbUFObzc-8" value="Noti on slack and mail" style="shape=tape;whiteSpace=wrap;html=1;" vertex="1" parent="1">
          <mxGeometry x="530" y="220" width="134.5" height="70" as="geometry" />
        </mxCell>
        <mxCell id="mTMwC-vl9moWvbUFObzc-13" style="edgeStyle=orthogonalEdgeStyle;rounded=0;orthogonalLoop=1;jettySize=auto;html=1;entryX=0.485;entryY=0.214;entryDx=0;entryDy=0;entryPerimeter=0;" edge="1" parent="1" source="mTMwC-vl9moWvbUFObzc-11" target="mTMwC-vl9moWvbUFObzc-12">
          <mxGeometry relative="1" as="geometry" />
        </mxCell>
        <mxCell id="mTMwC-vl9moWvbUFObzc-11" value="Trainer feedback form" style="rounded=0;whiteSpace=wrap;html=1;" vertex="1" parent="1">
          <mxGeometry x="338" y="320" width="172" height="40" as="geometry" />
        </mxCell>
        <mxCell id="mTMwC-vl9moWvbUFObzc-15" style="edgeStyle=orthogonalEdgeStyle;rounded=0;orthogonalLoop=1;jettySize=auto;html=1;entryX=0;entryY=0.5;entryDx=0;entryDy=0;entryPerimeter=0;" edge="1" parent="1" source="mTMwC-vl9moWvbUFObzc-12" target="mTMwC-vl9moWvbUFObzc-14">
          <mxGeometry relative="1" as="geometry" />
        </mxCell>
        <mxCell id="mTMwC-vl9moWvbUFObzc-17" style="edgeStyle=orthogonalEdgeStyle;rounded=0;orthogonalLoop=1;jettySize=auto;html=1;entryX=0.491;entryY=0.157;entryDx=0;entryDy=0;entryPerimeter=0;" edge="1" parent="1" source="mTMwC-vl9moWvbUFObzc-12" target="mTMwC-vl9moWvbUFObzc-16">
          <mxGeometry relative="1" as="geometry" />
        </mxCell>
        <mxCell id="mTMwC-vl9moWvbUFObzc-12" value="Lead module update" style="shape=tape;whiteSpace=wrap;html=1;" vertex="1" parent="1">
          <mxGeometry x="356.75" y="380" width="134.5" height="70" as="geometry" />
        </mxCell>
        <mxCell id="mTMwC-vl9moWvbUFObzc-14" value="Noti on slack and mail" style="shape=tape;whiteSpace=wrap;html=1;" vertex="1" parent="1">
          <mxGeometry x="540" y="380" width="134.5" height="70" as="geometry" />
        </mxCell>
        <mxCell id="mTMwC-vl9moWvbUFObzc-19" style="edgeStyle=orthogonalEdgeStyle;rounded=0;orthogonalLoop=1;jettySize=auto;html=1;entryX=0.392;entryY=0.033;entryDx=0;entryDy=0;entryPerimeter=0;" edge="1" parent="1" source="mTMwC-vl9moWvbUFObzc-16" target="mTMwC-vl9moWvbUFObzc-18">
          <mxGeometry relative="1" as="geometry" />
        </mxCell>
        <mxCell id="mTMwC-vl9moWvbUFObzc-16" value="Session feedback call" style="shape=tape;whiteSpace=wrap;html=1;" vertex="1" parent="1">
          <mxGeometry x="358" y="480" width="134.5" height="50" as="geometry" />
        </mxCell>
        <mxCell id="mTMwC-vl9moWvbUFObzc-20" style="edgeStyle=orthogonalEdgeStyle;rounded=0;orthogonalLoop=1;jettySize=auto;html=1;" edge="1" parent="1" source="mTMwC-vl9moWvbUFObzc-18">
          <mxGeometry relative="1" as="geometry">
            <mxPoint x="240" y="620" as="targetPoint" />
          </mxGeometry>
        </mxCell>
        <mxCell id="mTMwC-vl9moWvbUFObzc-21" style="edgeStyle=orthogonalEdgeStyle;rounded=0;orthogonalLoop=1;jettySize=auto;html=1;" edge="1" parent="1" source="mTMwC-vl9moWvbUFObzc-18">
          <mxGeometry relative="1" as="geometry">
            <mxPoint x="610" y="620" as="targetPoint" />
          </mxGeometry>
        </mxCell>
        <mxCell id="mTMwC-vl9moWvbUFObzc-18" value="CC call" style="rounded=0;whiteSpace=wrap;html=1;" vertex="1" parent="1">
          <mxGeometry x="370" y="570" width="130" height="30" as="geometry" />
        </mxCell>
        <mxCell id="mTMwC-vl9moWvbUFObzc-24" style="edgeStyle=orthogonalEdgeStyle;rounded=0;orthogonalLoop=1;jettySize=auto;html=1;" edge="1" parent="1" source="mTMwC-vl9moWvbUFObzc-22">
          <mxGeometry relative="1" as="geometry">
            <mxPoint x="240" y="690" as="targetPoint" />
          </mxGeometry>
        </mxCell>
        <mxCell id="mTMwC-vl9moWvbUFObzc-22" value="Not Interested" style="rounded=0;whiteSpace=wrap;html=1;" vertex="1" parent="1">
          <mxGeometry x="180" y="620" width="120" height="30" as="geometry" />
        </mxCell>
        <mxCell id="mTMwC-vl9moWvbUFObzc-27" style="edgeStyle=orthogonalEdgeStyle;rounded=0;orthogonalLoop=1;jettySize=auto;html=1;entryX=0.5;entryY=0;entryDx=0;entryDy=0;" edge="1" parent="1" source="mTMwC-vl9moWvbUFObzc-23" target="mTMwC-vl9moWvbUFObzc-26">
          <mxGeometry relative="1" as="geometry" />
        </mxCell>
        <mxCell id="mTMwC-vl9moWvbUFObzc-23" value="Interested" style="rounded=0;whiteSpace=wrap;html=1;" vertex="1" parent="1">
          <mxGeometry x="547.25" y="620" width="120" height="30" as="geometry" />
        </mxCell>
        <mxCell id="mTMwC-vl9moWvbUFObzc-25" value="Lead Status Update" style="rounded=0;whiteSpace=wrap;html=1;" vertex="1" parent="1">
          <mxGeometry x="180" y="690" width="120" height="40" as="geometry" />
        </mxCell>
        <mxCell id="mTMwC-vl9moWvbUFObzc-28" style="edgeStyle=orthogonalEdgeStyle;rounded=0;orthogonalLoop=1;jettySize=auto;html=1;" edge="1" parent="1" source="mTMwC-vl9moWvbUFObzc-26">
          <mxGeometry relative="1" as="geometry">
            <mxPoint x="607.25" y="760" as="targetPoint" />
          </mxGeometry>
        </mxCell>
        <mxCell id="mTMwC-vl9moWvbUFObzc-26" value="Negotiation (CC call)" style="rounded=0;whiteSpace=wrap;html=1;" vertex="1" parent="1">
          <mxGeometry x="547.25" y="680" width="120" height="40" as="geometry" />
        </mxCell>
        <mxCell id="mTMwC-vl9moWvbUFObzc-33" style="edgeStyle=orthogonalEdgeStyle;rounded=0;orthogonalLoop=1;jettySize=auto;html=1;" edge="1" parent="1" source="mTMwC-vl9moWvbUFObzc-29">
          <mxGeometry relative="1" as="geometry">
            <mxPoint x="460" y="875" as="targetPoint" />
          </mxGeometry>
        </mxCell>
        <mxCell id="mTMwC-vl9moWvbUFObzc-29" value="Automated greeting call to the customer" style="shape=tape;whiteSpace=wrap;html=1;" vertex="1" parent="1">
          <mxGeometry x="540" y="840" width="134.5" height="70" as="geometry" />
        </mxCell>
        <mxCell id="mTMwC-vl9moWvbUFObzc-32" style="edgeStyle=orthogonalEdgeStyle;rounded=0;orthogonalLoop=1;jettySize=auto;html=1;entryX=0.483;entryY=0.171;entryDx=0;entryDy=0;entryPerimeter=0;" edge="1" parent="1" source="mTMwC-vl9moWvbUFObzc-31" target="mTMwC-vl9moWvbUFObzc-29">
          <mxGeometry relative="1" as="geometry" />
        </mxCell>
        <mxCell id="mTMwC-vl9moWvbUFObzc-31" value="Conversion disposition on CRM" style="rounded=0;whiteSpace=wrap;html=1;" vertex="1" parent="1">
          <mxGeometry x="554.5" y="760" width="120" height="40" as="geometry" />
        </mxCell>
        <mxCell id="mTMwC-vl9moWvbUFObzc-35" style="edgeStyle=orthogonalEdgeStyle;rounded=0;orthogonalLoop=1;jettySize=auto;html=1;" edge="1" parent="1" source="mTMwC-vl9moWvbUFObzc-34">
          <mxGeometry relative="1" as="geometry">
            <mxPoint x="387.25" y="960" as="targetPoint" />
          </mxGeometry>
        </mxCell>
        <mxCell id="mTMwC-vl9moWvbUFObzc-34" value="Greeting whatsApp noti." style="shape=tape;whiteSpace=wrap;html=1;" vertex="1" parent="1">
          <mxGeometry x="320" y="850" width="134.5" height="70" as="geometry" />
        </mxCell>
        <mxCell id="mTMwC-vl9moWvbUFObzc-37" style="edgeStyle=orthogonalEdgeStyle;rounded=0;orthogonalLoop=1;jettySize=auto;html=1;" edge="1" parent="1" source="mTMwC-vl9moWvbUFObzc-36">
          <mxGeometry relative="1" as="geometry">
            <mxPoint x="530" y="975" as="targetPoint" />
          </mxGeometry>
        </mxCell>
        <mxCell id="mTMwC-vl9moWvbUFObzc-36" value="Greeting Emailer&amp;nbsp;" style="shape=tape;whiteSpace=wrap;html=1;" vertex="1" parent="1">
          <mxGeometry x="330" y="940" width="134.5" height="70" as="geometry" />
        </mxCell>
        <mxCell id="mTMwC-vl9moWvbUFObzc-38" value="Mail of enrollment form for LMS" style="shape=tape;whiteSpace=wrap;html=1;" vertex="1" parent="1">
          <mxGeometry x="532.75" y="920" width="147.25" height="90" as="geometry" />
        </mxCell>
        <mxCell id="mTMwC-vl9moWvbUFObzc-39" value="&lt;b style=&quot;font-size: 21px;&quot;&gt;During Sales Automation flow&lt;/b&gt;" style="text;html=1;strokeColor=none;fillColor=none;align=center;verticalAlign=middle;whiteSpace=wrap;rounded=0;fontSize=21;" vertex="1" parent="1">
          <mxGeometry x="271.5" y="10" width="305" height="30" as="geometry" />
        </mxCell>
      </root>
    </mxGraphModel>
  </diagram>
</mxfile>
